<svg xmlns="http://www.w3.org/2000/svg" version="1.1" xmlns:xlink="http://www.w3.org/1999/xlink" xmlns:svgjs="http://svgjs.dev/svgjs" width="1000" height="623" viewBox="0 0 1000 623"><g transform="matrix(1,0,0,1,-0.6060606060606233,0.2522267206477409)"><svg viewBox="0 0 396 247" data-background-color="#ffffff" preserveAspectRatio="xMidYMid meet" height="623" width="1000" xmlns="http://www.w3.org/2000/svg" xmlns:xlink="http://www.w3.org/1999/xlink"><g id="tight-bounds" transform="matrix(1,0,0,1,0.2400000000000091,-0.09999999999999432)"><svg viewBox="0 0 395.52 247.2" height="247.2" width="395.52"><g><svg></svg></g><g><svg viewBox="0 0 395.52 247.2" height="247.2" width="395.52"><g transform="matrix(1,0,0,1,75.54432000000001,84.45305456359102)"><svg viewBox="0 0 244.43135999999996 78.29389087281795" height="78.29389087281795" width="244.43135999999996"><g><svg viewBox="0 0 244.43135999999996 78.29389087281795" height="78.29389087281795" width="244.43135999999996"><g><svg viewBox="0 0 244.43135999999996 78.29389087281795" height="78.29389087281795" width="244.43135999999996"><g><svg viewBox="0 0 244.43135999999996 78.29389087281795" height="78.29389087281795" width="244.43135999999996"><g id="textblocktransform"><svg viewBox="0 0 244.43135999999996 78.29389087281795" height="78.29389087281795" width="244.43135999999996" id="textblock"><g><svg viewBox="0 0 244.43135999999996 78.29389087281795" height="78.29389087281795" width="244.43135999999996"><g transform="matrix(1,0,0,1,0,0)"><svg width="244.43135999999996" viewBox="2.5 -36.04999923706055 180.42999267578125 57.79999923706055" height="78.29389087281795" data-palette-color="#ee3e38"><path d="M22.75-35.6Q24-35.1 24-34.2L24-34.2Q24-33.3 22.75-31.9L22.75-31.9Q22.2-31.95 21.15-31.95L21.15-31.95Q18.85-31.95 16.75-31.33 14.65-30.7 12.4-29.4L12.4-29.4Q11.35-28.75 10.6-27.75L10.6-27.75Q10.05-27.15 10.05-26.35L10.05-26.35Q10.05-25 11.55-23.75L11.55-23.75Q13-22.25 16.3-18.3L16.3-18.3 17.45-17.1Q19.9-14.45 21.33-12.6 22.75-10.75 23.75-8.35L23.75-8.35Q24.15-7.3 24.15-6.45L24.15-6.45Q24.15-4.3 22.5-2.5L22.5-2.5Q20.6-0.4 18.1 0.58 15.6 1.55 12.45 1.8L12.45 1.8Q12.05 1.85 11.5 1.9 10.95 1.95 10.25 1.95L10.25 1.95Q9.8 1.95 8.9 1.85L8.9 1.85Q7.8 1.9 6.6 1.48 5.4 1.05 4.4 0.25L4.4 0.25Q2.5-1.35 2.5-3.3L2.5-3.3Q2.5-4.95 3.9-6.65L3.9-6.65Q4.6-6.55 4.73-6.23 4.85-5.9 4.78-5.5 4.7-5.1 4.7-4.85L4.7-4.85Q4.7-4.7 4.8-4.4L4.8-4.4Q6.75-3.5 9.45-3.5L9.45-3.5Q12.45-3.5 15.13-4.53 17.8-5.55 18.4-7.05L18.4-7.05Q18.75-8.05 16.7-10.58 14.65-13.1 12.1-15.5L12.1-15.5Q9.7-17.65 7.75-19.75L7.75-19.75Q6.65-20.95 6.03-22.53 5.4-24.1 5.4-25.8L5.4-25.8Q5.4-28.1 6.58-30.15 7.75-32.2 10.1-33.5L10.1-33.5Q14.6-36.05 19.3-36.05L19.3-36.05Q19.95-36.05 21.15-35.95L21.15-35.95Q22.25-35.85 22.75-35.6L22.75-35.6ZM34.8-26.7Q34.85-21.85 35.07-18.73 35.3-15.6 36.15-12.1L36.15-12.1Q38.25-12.85 40-12.85L40-12.85Q42.95-12.85 45.1-11.1 47.25-9.35 48-6.75L48-6.75Q48.6-4.85 48.6-1.65L48.6-1.65 48.55 2.25Q48.55 2.6 48.15 3.05 47.75 3.5 47.35 3.6L47.35 3.6Q47.2 3.65 46.9 3.65L46.9 3.65Q45.75 3.65 44.5 2.53 43.25 1.4 43.2 0.3L43.2 0.3 43.1-2.3Q43.1-3.2 43-4.9L43-4.9Q42.9-6.65 42.6-7.4L42.6-7.4Q42.3-8.25 41.85-8.7 41.4-9.15 40.85-9.15L40.85-9.15Q40.45-9.15 39.97-8.8 39.5-8.45 39.15-7.85L39.15-7.85Q38.1-6.2 36.4-1.35L36.4-1.35Q35.85 0.4 34.45 0.4L34.45 0.4Q34.3 0.4 33.8 0.3L33.8 0.3Q33.5 0.2 32.65-0.03 31.8-0.25 31.32-0.75 30.85-1.25 30.85-2.2L30.85-2.2Q30.85-11.65 29.7-17.85L29.7-17.85Q29.15-20.95 29.15-25L29.15-25 29.15-28.35 29.15-30.1Q29.15-30.8 29.9-31.3 30.65-31.8 31.6-31.8L31.6-31.8Q32.4-31.8 32.95-31.45L32.95-31.45Q33.95-30.85 34.37-29.95 34.8-29.05 34.8-27.7L34.8-27.7 34.8-26.7ZM60.15-21.2Q60.3-20.7 60.2-19.65L60.2-19.65 59.59-13.75Q59.84-13.95 60.34-15.18 60.84-16.4 61.3-17.18 61.75-17.95 62-18.2L62-18.2Q64.34-20.45 67.3-20.9 70.25-21.35 73.8-21.3L73.8-21.3Q74.15-21.3 74.57-21.03 75-20.75 75-20.58 75-20.4 74.7-20.03 74.4-19.65 74.15-19.55L74.15-19.55Q71.15-18.55 68.87-17.25 66.59-15.95 64.95-13.85L64.95-13.85Q61.05-8.9 60.45-3.65L60.45-3.65Q60.3-2.25 59.59-1.78 58.9-1.3 57.65-1.3L57.65-1.3Q56.25-1.3 55.15-2.5 54.05-3.7 54.05-5.15L54.05-5.15Q54.09-10.45 54.09-21.05L54.09-21.05Q54.09-22.5 54.75-23.08 55.4-23.65 57.09-23.65L57.09-23.65Q58.34-23.65 59.22-22.95 60.09-22.25 60.15-21.2L60.15-21.2ZM84.64-7.8Q84.14-7.5 83.19-7.5L83.19-7.5Q82.84-7.5 82.34-7.55 81.84-7.6 81.49-7.55L81.49-7.55Q81.89-5.9 83.39-4.88 84.89-3.85 86.74-3.85L86.74-3.85Q88.34-3.85 89.59-4.55L89.59-4.55Q91.44-5.5 92.79-6.8L92.79-6.8Q93.74-7.75 94.59-7.75L94.59-7.75Q95.14-7.75 95.54-7.2L95.54-7.2Q95.94-6.55 95.94-5.6L95.94-5.6Q95.94-4.6 95.54-4.05L95.54-4.05Q94.24-2.05 92.17-1.3 90.09-0.55 87.34-0.55L87.34-0.55Q84.49-0.55 81.84-1.8 79.19-3.05 77.32-5.23 75.44-7.4 74.84-10.05L74.84-10.05Q74.44-11.6 74.44-13.1L74.44-13.1Q74.44-15.45 75.77-16.9 77.09-18.35 80.04-19.65L80.04-19.65Q82.74-20.8 85.04-20.8L85.04-20.8Q86.69-20.8 88.24-20.3L88.24-20.3Q93.04-18.8 93.04-16.2L93.04-16.2Q93.04-14.55 91.09-12.2L91.09-12.2Q90.14-11.1 88.84-10.25 87.54-9.4 86.32-8.72 85.09-8.05 84.64-7.8L84.64-7.8ZM86.74-17.05Q86.69-17.3 86.37-17.48 86.04-17.65 85.99-17.7L85.99-17.7Q84.64-17.8 83.24-16.93 81.84-16.05 80.92-14.7 79.99-13.35 79.99-12.1L79.99-12.1 80.04-11.7Q80.09-11.5 80.57-11.2 81.04-10.9 81.14-11L81.14-11Q84.69-13.65 86.49-15.25L86.49-15.25Q86.79-15.55 86.79-16.35L86.79-16.35Q86.79-16.85 86.74-17.05L86.74-17.05ZM106.54-7.8Q106.04-7.5 105.09-7.5L105.09-7.5Q104.74-7.5 104.24-7.55 103.74-7.6 103.39-7.55L103.39-7.55Q103.79-5.9 105.29-4.88 106.79-3.85 108.64-3.85L108.64-3.85Q110.24-3.85 111.49-4.55L111.49-4.55Q113.34-5.5 114.69-6.8L114.69-6.8Q115.64-7.75 116.49-7.75L116.49-7.75Q117.04-7.75 117.44-7.2L117.44-7.2Q117.84-6.55 117.84-5.6L117.84-5.6Q117.84-4.6 117.44-4.05L117.44-4.05Q116.14-2.05 114.07-1.3 111.99-0.55 109.24-0.55L109.24-0.55Q106.39-0.55 103.74-1.8 101.09-3.05 99.22-5.23 97.34-7.4 96.74-10.05L96.74-10.05Q96.34-11.6 96.34-13.1L96.34-13.1Q96.34-15.45 97.67-16.9 98.99-18.35 101.94-19.65L101.94-19.65Q104.64-20.8 106.94-20.8L106.94-20.8Q108.59-20.8 110.14-20.3L110.14-20.3Q114.94-18.8 114.94-16.2L114.94-16.2Q114.94-14.55 112.99-12.2L112.99-12.2Q112.04-11.1 110.74-10.25 109.44-9.4 108.22-8.72 106.99-8.05 106.54-7.8L106.54-7.8ZM108.64-17.05Q108.59-17.3 108.27-17.48 107.94-17.65 107.89-17.7L107.89-17.7Q106.54-17.8 105.14-16.93 103.74-16.05 102.82-14.7 101.89-13.35 101.89-12.1L101.89-12.1 101.94-11.7Q101.99-11.5 102.47-11.2 102.94-10.9 103.04-11L103.04-11Q106.59-13.65 108.39-15.25L108.39-15.25Q108.69-15.55 108.69-16.35L108.69-16.35Q108.69-16.85 108.64-17.05L108.64-17.05ZM130.14-24.7Q129.99-24.35 129.44-24.05 128.89-23.75 128.64-23.6L128.64-23.6Q128.24-23.75 127.49-24 126.74-24.25 126.34-24.55L126.34-24.55Q125.99-24.8 125.61-25.33 125.24-25.85 124.99-26.1L124.99-26.1Q125.29-26.3 125.69-26.65 126.09-27 126.44-27.2 126.79-27.4 127.09-27.4L127.09-27.4Q128.09-27.4 129.59-26.3L129.59-26.3Q129.89-26.05 130.09-25.53 130.29-25 130.14-24.7L130.14-24.7ZM128.19 16.6Q128.59 15.6 128.89 14L128.89 14 129.09 13Q128.54 10.95 127.49 5.5L127.49 5.5 127.19 3.95Q125.19-6.45 124.04-11.7L124.04-11.7Q123.84-12.7 123.89-13.7L123.89-13.7 123.94-15.45Q123.99-16 123.99-17.15L123.99-17.15Q123.99-18.4 124.71-18.75 125.44-19.1 126.74-19L126.74-19Q127.99-18.95 128.69-18.25 129.39-17.55 129.44-16.45L129.44-16.45 129.54-13.9Q129.74-8.8 130.06-5.23 130.39-1.65 131.44 1.85L131.44 1.85Q132.04 3.85 132.46 6.18 132.89 8.5 132.99 9L132.99 9Q133.59 12 133.84 13.5L133.84 13.5Q134.04 14.35 134.04 15.4L134.04 15.4Q134.04 18.8 131.39 20.7L131.39 20.7Q129.94 21.75 128.04 21.75L128.04 21.75Q125.99 21.75 123.59 20.5L123.59 20.5Q118.74 18 118.44 13.1L118.44 13.1Q118.44 12.75 118.39 12.38 118.34 12 118.34 11.65L118.34 11.65Q118.34 9.95 119.89 9.95L119.89 9.95Q120.49 9.95 120.81 10.35 121.14 10.75 121.36 11.33 121.59 11.9 121.79 12.25L121.79 12.25 122.24 13.15Q123.64 15.95 124.49 17L124.49 17Q125.39 18.25 126.34 18.25L126.34 18.25Q126.89 18.25 127.39 17.82 127.89 17.4 128.19 16.6L128.19 16.6ZM153.09-2.55Q152.64-2.75 152.19-2.75L152.19-2.75Q151.74-2.75 151.41-2.53 151.09-2.3 150.69-1.85L150.69-1.85Q150.09-1.25 149.44-0.85L149.44-0.85Q148.84-0.5 147.24-0.2L147.24-0.2Q146.54-0.1 146.09-0.1L146.09-0.1Q143.99-0.1 141.71-1.03 139.44-1.95 138.49-3.25L138.49-3.25Q137.49-4.65 137.54-6.25L137.54-6.25Q137.59-8.65 139.54-11.05L139.54-11.05Q141.44-13.35 143.01-14.3 144.59-15.25 147.34-15.5L147.34-15.5Q147.94-15.5 149.06-15.7 150.19-15.9 150.19-16.25L150.19-16.25Q150.19-16.95 149.56-17.53 148.94-18.1 147.04-18.1L147.04-18.1Q146.34-18.1 144.94-18L144.94-18Q143.54-17.9 142.99-17.9L142.99-17.9Q141.29-17.9 140.54-18.45L140.54-18.45Q140.34-18.55 140.34-19.4L140.34-19.4Q140.34-20.9 141.39-21.3L141.39-21.3Q143.54-22.1 145.84-22.15L145.84-22.15Q148.74-22.15 151.21-20.88 153.69-19.6 154.84-17.7L154.84-17.7Q155.99-15.8 156.34-12.45L156.34-12.45Q156.74-8.7 156.74-2.9L156.74-2.9Q156.74-1.3 156.29-1.05L156.29-1.05Q155.89-0.8 155.54-0.8L155.54-0.8Q155.09-0.8 154.71-1.07 154.34-1.35 153.89-1.85L153.89-1.85Q153.44-2.4 153.09-2.55L153.09-2.55ZM145.19-3.15Q147.54-3.85 149.79-5.4L149.79-5.4Q150.29-5.75 150.69-6.3 151.09-6.85 151.19-7L151.19-7Q151.29-7.15 151.36-7.88 151.44-8.6 151.39-9.05L151.39-9.05Q151.34-9.2 151.21-9.85 151.09-10.5 150.84-11L150.84-11Q150.59-11.4 150.04-11.75 149.49-12.1 149.04-12.05L149.04-12.05Q148.09-12 146.99-11.35 145.89-10.7 144.94-9.6L144.94-9.6Q143.99-8.45 143.46-7.28 142.94-6.1 142.94-5.1L142.94-5.1Q143.04-3.75 143.69-3.3L143.69-3.3Q144.04-3.05 144.54-3.05L144.54-3.05Q144.94-3.05 145.19-3.15L145.19-3.15ZM170.03-18.85Q170.03-18.55 169.93-18.07 169.83-17.6 169.88-17.45L169.88-17.45Q173.33-18.2 175.73-18.2L175.73-18.2Q179.48-18.2 181.38-14.6L181.38-14.6Q182.93-11.55 182.93-7.85L182.93-7.85Q182.93-6.9 182.73-5.1L182.73-5.1Q182.58-3.9 181.78-3.18 180.98-2.45 179.88-2.45L179.88-2.45Q178.73-2.45 178.26-2.88 177.78-3.3 177.71-3.85 177.63-4.4 177.63-5.6L177.63-5.6 177.58-6.65Q177.48-9.65 177.18-11.85L177.18-11.85Q177.03-12.75 176.51-13.13 175.98-13.5 175.13-13.5L175.13-13.5Q174.33-13.5 173.23-13.25L173.23-13.25Q171.53-12.8 170.96-12.55 170.38-12.3 169.28-11.5L169.28-11.5Q168.93-11.25 168.78-10.5 168.63-9.75 168.63-9.65L168.63-9.65Q167.98-6.45 167.23-2L167.23-2Q167.18-1.8 167.03-1.05 166.88-0.3 166.46 0.03 166.03 0.35 165.23 0.25L165.23 0.25Q162.08-0.15 162.03-2.4L162.03-2.4Q161.98-5.3 162.48-9.25L162.48-9.25Q162.83-12.1 163.13-13.85L163.13-13.85Q163.23-14.65 163.41-15.8 163.58-16.95 163.73-18.45L163.73-18.45Q163.88-19.6 164.03-20.15 164.18-20.7 164.73-21.08 165.28-21.45 166.43-21.45L166.43-21.45Q167.88-21.45 168.83-20.8 169.78-20.15 170.03-18.95L170.03-18.95 170.03-18.85Z" opacity="1" transform="matrix(1,0,0,1,0,0)" fill="#ee3e38" class="wordmark-text-0" data-fill-palette-color="primary" id="text-0"></path></svg></g></svg></g></svg></g></svg></g></svg></g></svg></g></svg></g><g><path d="M0 123.6c0-68.262 55.338-123.6 123.6-123.6 51.09 0 94.94 30.997 113.769 75.211h-3.848c-18.61-42.214-60.824-71.681-109.921-71.681-66.313 0-120.07 53.757-120.07 120.07 0 66.313 53.757 120.07 120.07 120.07 49.097 0 91.311-29.468 109.921-71.681h3.848c-18.829 44.214-62.679 75.211-113.769 75.211-68.262 0-123.6-55.338-123.6-123.6z" fill="#ee3e38" stroke="transparent" data-fill-palette-color="tertiary"></path></g></svg></g><defs></defs></svg><rect width="395.52" height="247.2" fill="none" stroke="none" visibility="hidden"></rect></g></svg></g></svg>